<svg width="102" height="154" viewBox="0 0 102 154" fill="none" xmlns="http://www.w3.org/2000/svg">
<path d="M10.9881 132.767C11.2742 131.313 10.4831 130.011 8.81427 130.134C6.55055 130.302 4.97532 134.618 9.79124 136.055C13.7394 137.233 16.6139 134.506 21.1626 130.299C31.3262 120.9 43.5987 119.988 51.0829 129.477C54.1676 124.276 66.3271 115.607 84.8935 133.589C91.714 140.195 97.8081 133.983 94.4694 130.574C92.9506 129.023 89.982 131.188 91.4769 132.767H91.1775C84.2092 127.105 98.7648 121.815 101.649 131.396C104.629 145.818 88.0239 148.163 74.7212 142.909C49.0107 131.12 48.7363 134.287 23.8537 144.006C16.2172 146.873 6.86491 145.235 3.08972 141.919C-1.3941 137.98 -1.11679 128.621 4.70399 126.735C10.6447 124.552 15.6706 129.226 10.9881 132.767Z" fill="white"/>
<g clip-path="url(#clip0_206_2)">
<path d="M89.1698 58.4592C86.9884 53.3181 81.7415 53.1296 74.6503 54.157C74.704 42.1732 76.6992 30.7282 80.4901 18.2214C82.253 13.7427 69.1174 5.60964 50.6876 5.52203C32.2578 5.60964 19.1208 13.7414 20.8838 18.22C24.6524 30.6512 26.6344 42.1758 26.7053 54.153C19.6232 53.1296 14.3829 53.3208 12.2015 58.4578C7.45039 68.0112 22.4671 85.1653 50.6863 85.1653C78.9068 85.1653 93.9222 68.0112 89.1698 58.4592ZM25.084 66.3732C25.084 66.3732 26.864 60.0746 26.5793 56.7442C42.063 70.8466 59.3122 70.8466 74.7945 56.7442C74.8536 60.1423 76.2886 66.3732 76.2886 66.3732C61.0463 81.0504 40.3276 81.0504 25.084 66.3732Z" fill="white"/>
</g>
<g filter="url(#filter0_d_206_2)">
<path d="M77.7531 99.8213C77.7531 105.777 72.9883 110.564 67.1605 110.564C61.3327 110.564 56.5679 105.777 56.5679 99.8213C56.5679 93.8656 61.3327 89.0782 67.1605 89.0782C72.9883 89.0782 77.7531 93.8656 77.7531 99.8213Z" stroke="white" stroke-width="4" shape-rendering="crispEdges"/>
</g>
<path d="M78 98.9559L78.4198 153.327" stroke="white" stroke-width="4"/>
<defs>
<filter id="filter0_d_206_2" x="50.5679" y="87.0782" width="33.1852" height="33.4863" filterUnits="userSpaceOnUse" color-interpolation-filters="sRGB">
<feFlood flood-opacity="0" result="BackgroundImageFix"/>
<feColorMatrix in="SourceAlpha" type="matrix" values="0 0 0 0 0 0 0 0 0 0 0 0 0 0 0 0 0 0 127 0" result="hardAlpha"/>
<feOffset dy="4"/>
<feGaussianBlur stdDeviation="2"/>
<feComposite in2="hardAlpha" operator="out"/>
<feColorMatrix type="matrix" values="0 0 0 0 0 0 0 0 0 0 0 0 0 0 0 0 0 0 0.25 0"/>
<feBlend mode="normal" in2="BackgroundImageFix" result="effect1_dropShadow_206_2"/>
<feBlend mode="normal" in="SourceGraphic" in2="effect1_dropShadow_206_2" result="shape"/>
</filter>
<clipPath id="clip0_206_2">
<rect width="83.9506" height="84.9543" fill="white" transform="translate(8.81478)"/>
</clipPath>
</defs>
</svg>